<svg width="122" height="43" viewBox="0 0 122 43" fill="none" xmlns="http://www.w3.org/2000/svg">
<path d="M23.364 16.18H13.32L11.952 25.72H21.996L23.364 16.18ZM19.944 19.204L19.44 22.696H15.372L15.876 19.204H19.944ZM10.872 30.76L11.556 26.08H8.64V25.72H11.592L12.96 16.18H9.936V15.82H12.996L13.644 11.32H14.004L13.356 15.82H23.4L24.048 11.32H24.408L23.76 15.82H26.64V16.18H23.724L22.356 25.72H25.344V26.08H22.32L21.636 30.76H21.276L21.96 26.08H11.916L11.232 30.76H10.872ZM13.932 32.704L14.436 29.14H18.504L18 32.704C17.952 33.16 18.036 33.496 18.252 33.712C18.492 33.904 18.84 34 19.296 34H23.076C23.532 34 23.844 33.904 24.012 33.712C24.204 33.496 24.324 33.16 24.372 32.704L24.876 29.14H27.288C27.744 29.14 28.068 29.044 28.26 28.852C28.476 28.636 28.584 28.3 28.584 27.844V23.992C28.584 23.536 28.476 23.212 28.26 23.02C28.068 22.804 27.744 22.696 27.288 22.696H25.812L26.316 19.204H28.584C29.04 19.204 29.364 19.108 29.556 18.916C29.772 18.7 29.88 18.364 29.88 17.908V14.056C29.88 13.6 29.772 13.276 29.556 13.084C29.364 12.868 29.04 12.76 28.584 12.76H27.252L27.72 9.37597C27.768 8.91997 27.672 8.59597 27.432 8.40397C27.216 8.18797 26.88 8.07997 26.424 8.07997H22.644C22.188 8.07997 21.864 8.18797 21.672 8.40397C21.504 8.59597 21.396 8.91997 21.348 9.37597L20.88 12.76H16.812L17.28 9.37597C17.328 8.91997 17.232 8.59597 16.992 8.40397C16.776 8.18797 16.44 8.07997 15.984 8.07997H12.204C11.748 8.07997 11.424 8.18797 11.232 8.40397C11.064 8.59597 10.956 8.91997 10.908 9.37597L10.44 12.76H7.992C7.536 12.76 7.2 12.868 6.984 13.084C6.792 13.276 6.696 13.6 6.696 14.056V17.908C6.696 18.364 6.792 18.7 6.984 18.916C7.2 19.108 7.536 19.204 7.992 19.204H9.504L9 22.696H6.696C6.24 22.696 5.904 22.804 5.688 23.02C5.496 23.212 5.4 23.536 5.4 23.992V27.844C5.4 28.3 5.496 28.636 5.688 28.852C5.904 29.044 6.24 29.14 6.696 29.14H8.064L7.56 32.704C7.512 33.16 7.596 33.496 7.812 33.712C8.052 33.904 8.4 34 8.856 34H12.636C13.092 34 13.404 33.904 13.572 33.712C13.764 33.496 13.884 33.16 13.932 32.704ZM9.072 37.96C8.928 38.056 8.772 38.128 8.604 38.176C8.436 38.248 8.232 38.284 7.992 38.284H4.212C3.612 38.284 3.168 38.14 2.88 37.852C2.592 37.588 2.484 37.168 2.556 36.592L2.988 33.424H2.052C1.476 33.424 1.056 33.304 0.791996 33.064C0.527996 32.8 0.395996 32.368 0.395996 31.768V27.916C0.395996 27.604 0.431996 27.34 0.503996 27.124C0.599996 26.908 0.731996 26.728 0.899996 26.584L4.428 23.632V23.488H3.348C2.772 23.488 2.352 23.368 2.088 23.128C1.824 22.864 1.692 22.432 1.692 21.832V17.98C1.692 17.668 1.728 17.404 1.8 17.188C1.896 16.972 2.028 16.792 2.196 16.648L5.868 13.588L5.904 13.264C5.928 12.952 5.976 12.688 6.048 12.472C6.144 12.256 6.276 12.076 6.444 11.932L11.088 8.04397C11.208 7.94797 11.364 7.87597 11.556 7.82797C11.748 7.75597 11.964 7.71997 12.204 7.71997H15.984C16.584 7.71997 17.028 7.86397 17.316 8.15197C17.604 8.41597 17.712 8.83597 17.64 9.41197L17.316 11.572L21.528 8.04397C21.648 7.94797 21.804 7.87597 21.996 7.82797C22.188 7.75597 22.404 7.71997 22.644 7.71997H26.424C27.024 7.71997 27.468 7.86397 27.756 8.15197C28.044 8.41597 28.152 8.83597 28.08 9.41197L27.648 12.4H28.584C29.16 12.4 29.58 12.532 29.844 12.796C30.108 13.036 30.24 13.456 30.24 14.056V17.908C30.24 18.22 30.192 18.484 30.096 18.7C30.024 18.916 29.904 19.096 29.736 19.24L26.244 22.156V22.336H27.288C27.864 22.336 28.284 22.468 28.548 22.732C28.812 22.972 28.944 23.392 28.944 23.992V27.844C28.944 28.156 28.896 28.42 28.8 28.636C28.728 28.852 28.608 29.032 28.44 29.176L24.804 32.236L24.732 32.74C24.684 33.052 24.612 33.328 24.516 33.568C24.42 33.784 24.3 33.94 24.156 34.036L19.512 37.96C19.368 38.056 19.212 38.128 19.044 38.176C18.876 38.248 18.672 38.284 18.432 38.284H14.652C14.052 38.284 13.608 38.14 13.32 37.852C13.032 37.588 12.924 37.168 12.996 36.592L13.32 34.396L9.072 37.96ZM33.8619 38.284C33.2859 38.284 32.8659 38.152 32.6019 37.888C32.3379 37.624 32.2059 37.204 32.2059 36.628V13.3C32.2059 12.988 32.2419 12.724 32.3139 12.508C32.4099 12.292 32.5419 12.112 32.7099 11.968L37.3539 8.04397C37.4739 7.94797 37.6299 7.87597 37.8219 7.82797C38.0379 7.75597 38.2659 7.71997 38.5059 7.71997H49.9899C52.4859 7.71997 54.3219 8.21197 55.4979 9.19597C56.6739 10.156 57.2619 11.62 57.2619 13.588V15.316C57.2619 16.156 57.1419 16.876 56.9019 17.476C56.6859 18.076 56.3499 18.556 55.8939 18.916L55.7859 18.988C57.0819 19.276 58.0539 19.9 58.7019 20.86C59.3499 21.796 59.6739 23.104 59.6739 24.784V28.096C59.6739 29.176 59.5179 30.112 59.2059 30.904C58.8939 31.672 58.4259 32.32 57.8019 32.848L53.1579 36.772C52.5579 37.276 51.8019 37.648 50.8899 37.888C49.9779 38.152 48.9099 38.284 47.6859 38.284H33.8619ZM52.3299 34C54.7059 34 56.4579 33.52 57.5859 32.56C58.7379 31.6 59.3139 30.112 59.3139 28.096V24.784C59.3139 23.032 58.9419 21.7 58.1979 20.788C57.4539 19.876 56.3139 19.348 54.7779 19.204C55.4979 18.892 56.0259 18.424 56.3619 17.8C56.7219 17.152 56.9019 16.324 56.9019 15.316V13.588C56.9019 11.716 56.3379 10.336 55.2099 9.44797C54.0819 8.53597 52.3419 8.07997 49.9899 8.07997H38.5059C38.0499 8.07997 37.7139 8.18797 37.4979 8.40397C37.3059 8.59597 37.2099 8.91997 37.2099 9.37597V32.704C37.2099 33.16 37.3059 33.496 37.4979 33.712C37.7139 33.904 38.0499 34 38.5059 34H52.3299ZM50.8899 30.76H41.2059V11.32H48.5139C49.4979 11.32 50.3019 11.428 50.9259 11.644C51.5499 11.836 52.0299 12.112 52.3659 12.472C52.7019 12.808 52.9299 13.204 53.0499 13.66C53.1699 14.116 53.2299 14.608 53.2299 15.136V17.44C53.2299 18.16 53.0979 18.82 52.8339 19.42C52.5939 20.02 51.9579 20.452 50.9259 20.716C51.9099 20.716 52.7139 20.824 53.3379 21.04C53.9619 21.232 54.4419 21.52 54.7779 21.904C55.1139 22.264 55.3299 22.696 55.4259 23.2C55.5459 23.704 55.6059 24.256 55.6059 24.856V27.16C55.6059 27.688 55.5459 28.18 55.4259 28.636C55.3059 29.068 55.0779 29.44 54.7419 29.752C54.4299 30.064 53.9619 30.316 53.3379 30.508C52.7139 30.676 51.8979 30.76 50.8899 30.76ZM48.5139 11.68H41.5659V20.716H48.5139C49.4979 20.716 50.2779 20.632 50.8539 20.464C51.4299 20.272 51.8619 20.032 52.1499 19.744C52.4619 19.432 52.6539 19.084 52.7259 18.7C52.8219 18.292 52.8699 17.872 52.8699 17.44V15.136C52.8699 14.176 52.5939 13.36 52.0419 12.688C51.4899 12.016 50.3139 11.68 48.5139 11.68ZM45.3099 14.2H48.3699C48.8259 14.2 49.1619 14.32 49.3779 14.56C49.6179 14.8 49.7379 15.16 49.7379 15.64V16.648C49.7379 17.128 49.6179 17.488 49.3779 17.728C49.1619 17.968 48.8259 18.088 48.3699 18.088H45.3099V14.2ZM50.9259 21.076H41.5659V30.4H50.8899C52.6899 30.4 53.8659 30.112 54.4179 29.536C54.9699 28.936 55.2459 28.144 55.2459 27.16V24.856C55.2459 23.776 54.9699 22.876 54.4179 22.156C53.8899 21.436 52.7259 21.076 50.9259 21.076ZM45.3099 23.632H49.9899C50.4459 23.632 50.7819 23.752 50.9979 23.992C51.2379 24.208 51.3579 24.556 51.3579 25.036V26.44C51.3579 26.92 51.2379 27.28 50.9979 27.52C50.7819 27.76 50.4459 27.88 49.9899 27.88H45.3099V23.632ZM79.877 21.58C80.261 21.58 80.561 21.7 80.777 21.94C81.017 22.156 81.305 22.6 81.641 23.272L84.953 29.896C85.073 30.136 85.217 30.28 85.385 30.328C85.577 30.376 85.757 30.4 85.925 30.4H86.105C86.297 30.4 86.477 30.328 86.645 30.184C86.813 30.016 86.909 29.836 86.933 29.644L87.833 25.54C87.929 25.084 87.977 24.496 87.977 23.776C88.001 23.056 88.013 22.432 88.013 21.904V11.32H88.373V21.94C88.373 22.468 88.361 23.092 88.337 23.812C88.337 24.532 88.289 25.12 88.193 25.576L87.293 29.644C87.197 30.028 87.041 30.316 86.825 30.508C86.633 30.676 86.393 30.76 86.105 30.76H85.853C85.637 30.76 85.409 30.724 85.169 30.652C84.953 30.556 84.785 30.388 84.665 30.148L81.353 23.452C81.041 22.828 80.789 22.42 80.597 22.228C80.405 22.036 80.165 21.94 79.877 21.94H78.977C78.689 21.94 78.449 22.036 78.257 22.228C78.065 22.42 77.813 22.828 77.501 23.452L74.189 30.148C74.069 30.388 73.889 30.556 73.649 30.652C73.433 30.724 73.217 30.76 73.001 30.76H72.749C72.461 30.76 72.209 30.676 71.993 30.508C71.801 30.316 71.657 30.028 71.561 29.644L70.661 25.576C70.565 25.12 70.505 24.532 70.481 23.812C70.481 23.092 70.481 22.468 70.481 21.94V11.32H70.841V21.904C70.841 22.432 70.841 23.056 70.841 23.776C70.865 24.496 70.925 25.084 71.021 25.54L71.921 29.644C71.945 29.836 72.041 30.016 72.209 30.184C72.377 30.328 72.557 30.4 72.749 30.4H72.929C73.097 30.4 73.265 30.376 73.433 30.328C73.625 30.28 73.781 30.136 73.901 29.896L77.213 23.272C77.549 22.6 77.825 22.156 78.041 21.94C78.281 21.7 78.593 21.58 78.977 21.58H79.877ZM85.529 8.07997C85.073 8.07997 84.737 8.18797 84.521 8.40397C84.329 8.59597 84.233 8.91997 84.233 9.37597V22.624L82.145 18.088C81.953 17.68 81.701 17.392 81.389 17.224C81.077 17.056 80.693 16.972 80.237 16.972H78.725C78.269 16.972 77.885 17.056 77.573 17.224C77.261 17.392 77.009 17.68 76.817 18.088L74.729 22.624V9.37597C74.729 8.91997 74.621 8.59597 74.405 8.40397C74.213 8.18797 73.889 8.07997 73.433 8.07997H67.889C67.433 8.07997 67.097 8.18797 66.881 8.40397C66.689 8.59597 66.593 8.91997 66.593 9.37597V23.272C66.593 24.04 66.617 24.76 66.665 25.432C66.737 26.08 66.929 26.848 67.241 27.736L69.041 32.704C69.161 33.088 69.353 33.4 69.617 33.64C69.905 33.88 70.241 34 70.625 34H75.377C75.761 34 76.085 33.916 76.349 33.748C76.613 33.556 76.793 33.28 76.889 32.92L78.581 27.052C78.653 26.812 78.737 26.656 78.833 26.584C78.953 26.488 79.085 26.44 79.229 26.44H79.553C79.697 26.44 79.817 26.488 79.913 26.584C80.033 26.656 80.129 26.812 80.201 27.052L81.857 32.92C81.953 33.304 82.157 33.58 82.469 33.748C82.781 33.916 83.129 34 83.513 34H88.301C88.685 34 88.985 33.88 89.201 33.64C89.441 33.376 89.621 33.064 89.741 32.704L91.541 27.808C91.853 26.92 92.033 26.152 92.081 25.504C92.153 24.832 92.189 24.112 92.189 23.344V9.37597C92.189 8.91997 92.081 8.59597 91.865 8.40397C91.673 8.18797 91.349 8.07997 90.893 8.07997H85.529ZM71.993 37.852C71.825 37.972 71.633 38.068 71.417 38.14C71.201 38.236 70.973 38.284 70.733 38.284H65.981C65.525 38.284 65.129 38.14 64.793 37.852C64.457 37.564 64.217 37.192 64.073 36.736L62.273 31.768C61.937 30.88 61.733 30.1 61.661 29.428C61.613 28.732 61.589 27.988 61.589 27.196V13.3C61.589 12.988 61.625 12.724 61.697 12.508C61.793 12.292 61.925 12.112 62.093 11.968L66.737 8.04397C66.857 7.94797 67.013 7.87597 67.205 7.82797C67.421 7.75597 67.649 7.71997 67.889 7.71997H73.433C74.009 7.71997 74.429 7.85197 74.693 8.11597C74.957 8.37997 75.089 8.79997 75.089 9.37597V18.772L77.105 17.08C77.297 16.912 77.525 16.792 77.789 16.72C78.077 16.648 78.389 16.612 78.725 16.612H79.229V13.3C79.229 12.988 79.265 12.724 79.337 12.508C79.409 12.292 79.517 12.124 79.661 12.004L79.697 11.968L84.377 8.04397C84.497 7.94797 84.653 7.87597 84.845 7.82797C85.037 7.75597 85.265 7.71997 85.529 7.71997H90.893C91.469 7.71997 91.889 7.85197 92.153 8.11597C92.417 8.37997 92.549 8.79997 92.549 9.37597V23.344C92.549 24.136 92.513 24.88 92.441 25.576C92.393 26.248 92.201 27.028 91.865 27.916L90.065 32.812C89.993 33.052 89.897 33.268 89.777 33.46C89.657 33.652 89.513 33.832 89.345 34L84.701 37.852C84.557 37.996 84.401 38.104 84.233 38.176C84.065 38.248 83.873 38.284 83.657 38.284H78.869C78.389 38.284 77.969 38.176 77.609 37.96C77.249 37.744 76.997 37.408 76.853 36.952L76.133 34.396L71.993 37.852ZM102.653 38.284H97.0729C96.4969 38.284 96.0769 38.152 95.8129 37.888C95.5489 37.624 95.4169 37.204 95.4169 36.628V13.3C95.4169 12.988 95.4529 12.724 95.5249 12.508C95.6209 12.292 95.7529 12.112 95.9209 11.968L100.565 8.04397C100.685 7.94797 100.841 7.87597 101.033 7.82797C101.249 7.75597 101.477 7.71997 101.717 7.71997H112.733C114.437 7.71997 115.865 7.89997 117.017 8.25997C118.169 8.61997 119.081 9.12397 119.753 9.77197C120.425 10.42 120.893 11.2 121.157 12.112C121.445 13.024 121.589 14.02 121.589 15.1V19.708C121.589 20.86 121.421 21.916 121.085 22.876C120.773 23.812 120.221 24.616 119.429 25.288L114.749 29.176C114.149 29.68 113.369 30.1 112.409 30.436C111.473 30.748 110.321 30.928 108.953 30.976V32.704C108.953 33.016 108.905 33.28 108.809 33.496C108.737 33.712 108.617 33.892 108.449 34.036L103.769 37.924C103.673 38.02 103.517 38.104 103.301 38.176C103.109 38.248 102.893 38.284 102.653 38.284ZM107.297 34C107.753 34 108.077 33.904 108.269 33.712C108.485 33.496 108.593 33.16 108.593 32.704V26.728H112.733C115.997 26.728 118.229 26.08 119.429 24.784C120.629 23.488 121.229 21.796 121.229 19.708V15.1C121.229 13.012 120.629 11.32 119.429 10.024C118.229 8.72797 115.997 8.07997 112.733 8.07997H101.717C101.261 8.07997 100.925 8.18797 100.709 8.40397C100.517 8.59597 100.421 8.91997 100.421 9.37597V32.704C100.421 33.16 100.517 33.496 100.709 33.712C100.925 33.904 101.261 34 101.717 34H107.297ZM112.229 23.668H104.813V30.76H104.453V11.32H112.229C113.357 11.32 114.269 11.452 114.965 11.716C115.685 11.956 116.237 12.292 116.621 12.724C117.005 13.156 117.269 13.672 117.413 14.272C117.557 14.872 117.629 15.52 117.629 16.216V18.88C117.629 19.576 117.557 20.224 117.413 20.824C117.269 21.4 117.005 21.904 116.621 22.336C116.237 22.744 115.685 23.068 114.965 23.308C114.269 23.548 113.357 23.668 112.229 23.668ZM104.813 23.308H112.229C113.285 23.308 114.137 23.2 114.785 22.984C115.457 22.768 115.973 22.468 116.333 22.084C116.693 21.676 116.933 21.208 117.053 20.68C117.197 20.128 117.269 19.528 117.269 18.88V16.216C117.269 15.568 117.197 14.968 117.053 14.416C116.933 13.864 116.693 13.384 116.333 12.976C115.973 12.568 115.457 12.256 114.785 12.04C114.137 11.8 113.285 11.68 112.229 11.68H104.813V23.308ZM108.521 14.812H111.761C112.457 14.812 112.913 14.992 113.129 15.352C113.345 15.712 113.453 16.12 113.453 16.576V18.484C113.453 18.94 113.345 19.348 113.129 19.708C112.913 20.068 112.457 20.248 111.761 20.248H108.521V14.812Z" fill="white" fill-opacity="0.7"/>
</svg>
