<svg width="28" height="20" viewBox="0 0 28 20" fill="none" xmlns="http://www.w3.org/2000/svg">
<path d="M0 8.05599C0 7.59575 0.373096 7.22266 0.833333 7.22266H19.8957C20.6 7.22266 20.9867 8.04218 20.5389 8.58581L17.3357 12.4747C17.1774 12.6669 16.9414 12.7782 16.6924 12.7782H0.833335C0.373098 12.7782 0 12.4051 0 11.9449V8.05599Z" fill="#3B82F6"/>
<path d="M0 11.5277C0 11.0674 0.373096 10.6943 0.833333 10.6943H16.9881C17.677 10.6943 18.0684 11.4827 17.652 12.0314L17.3358 12.4481C17.1782 12.6557 16.9326 12.7777 16.6719 12.7777H0.833335C0.373098 12.7777 0 12.4046 0 11.9443V11.5277Z" fill="#0061FF"/>
<path d="M0 0.833333C0 0.373096 0.373096 0 0.833333 0H25.7638C26.5179 0 26.8842 0.921726 26.3359 1.43933L22.216 5.32822C22.0613 5.47422 21.8566 5.55556 21.6439 5.55556H0.833335C0.373097 5.55556 0 5.18246 0 4.72222V0.833333Z" fill="#3B82F6"/>
<path d="M0 4.30599C0 3.84575 0.373096 3.47266 0.833333 3.47266H22.0508C22.7885 3.47266 23.1624 4.36061 22.6469 4.88833L22.2398 5.30499C22.083 5.4655 21.8681 5.55599 21.6437 5.55599H0.833333C0.373095 5.55599 0 5.18289 0 4.72266V4.30599Z" fill="#0061FF"/>
<path d="M0 19.1667C0 19.6269 0.373096 20 0.833333 20L25.7638 20C26.5179 20 26.8842 19.0783 26.3359 18.5607L22.216 14.6718C22.0613 14.5258 21.8566 14.4444 21.6439 14.4444L0.833335 14.4444C0.373097 14.4444 0 14.8175 0 15.2778L0 19.1667Z" fill="#3B82F6"/>
<path d="M0 19.1667C0 19.6269 0.373096 20 0.833333 20L25.7887 20C26.5574 20 26.9162 19.0479 26.3387 18.5406L25.8644 18.1239C25.7124 17.9903 25.5169 17.9167 25.3144 17.9167L0.833334 17.9167C0.373097 17.9167 0 18.2898 0 18.75L0 19.1667Z" fill="#0061FF"/>
</svg>
